<?xml version="1.0" encoding="UTF-8"?>
<svg version="1.1" xmlns="http://www.w3.org/2000/svg" width="228" height="236">
<path d="M0 0 C75.24 0 150.48 0 228 0 C228 77.88 228 155.76 228 236 C152.76 236 77.52 236 0 236 C0 158.12 0 80.24 0 0 Z " fill="#164077" transform="translate(0,0)"/>
<path d="M0 0 C21.54602243 7.18200748 33.83896688 21.70698936 43.84765625 41.40234375 C48.54856117 51.09782997 51.93779747 61.2693404 53 72 C52.38125 72.12375 51.7625 72.2475 51.125 72.375 C48.80879168 72.87197356 48.80879168 72.87197356 47 75 C46.67128906 73.52853516 46.67128906 73.52853516 46.3359375 72.02734375 C40.94930337 48.76278201 31.30379598 25.99173505 11 12 C9.68 11.34 8.36 10.68 7 10 C6.67 38.38 6.34 66.76 6 96 C7.32 96.33 8.64 96.66 10 97 C10.99 97.66 11.98 98.32 13 99 C12.505 99.495 12.505 99.495 12 100 C28.83 100 45.66 100 63 100 C62.67 99.01 62.34 98.02 62 97 C64.71447137 96.09517621 66.32677717 95.86655584 69.1191864 95.84178162 C69.95631165 95.8319928 70.79343689 95.82220398 71.65592957 95.81211853 C72.57086685 95.80636307 73.48580414 95.8006076 74.4284668 95.79467773 C75.39450836 95.78477814 76.36054993 95.77487854 77.35586548 95.76467896 C80.55362485 95.7330547 83.75139908 95.70830278 86.94921875 95.68359375 C89.16453948 95.66302503 91.37985628 95.64202858 93.59516907 95.62062073 C99.42962461 95.56539163 105.26411563 95.515986 111.09863281 95.46777344 C117.05081341 95.41756457 123.00294242 95.36187529 128.95507812 95.30664062 C140.63667469 95.19904878 152.31831603 95.09760604 164 95 C163.23419174 91.082334 162.46140149 87.1660746 161.6875 83.25 C161.47416016 82.15816406 161.26082031 81.06632812 161.04101562 79.94140625 C159.57901328 72.56593172 157.89321185 65.27664736 156 58 C155.34 58 154.68 58 154 58 C153.86464844 56.75476563 153.86464844 56.75476563 153.7265625 55.484375 C152.86031207 51.33009874 151.30247975 48.0043172 149.375 44.25 C149.02034668 43.54842773 148.66569336 42.84685547 148.30029297 42.12402344 C145.7211115 37.1309485 142.82672603 32.51369137 139.4453125 28.015625 C138.05538178 26.07723514 137.00213404 24.15993939 136 22 C135.34 22 134.68 22 134 22 C134 32.56 134 43.12 134 54 C133.67 54 133.34 54 133 54 C133 52.35 133 50.7 133 49 C131.68 48.67 130.36 48.34 129 48 C129.0220752 47.09233887 129.04415039 46.18467773 129.06689453 45.24951172 C129.12539688 41.85940884 129.13871143 38.47521108 129.12207031 35.08496094 C129.12400937 33.62226233 129.14361017 32.15947103 129.18164062 30.69726562 C129.2969142 25.99666521 129.23625515 21.57585197 128 17 C125.02064814 13.98272682 121.97827786 12.39723557 118 11 C118.66 10.34 119.32 9.68 120 9 C120.69748583 7.68252676 121.36959957 6.35085807 122 5 C145.23408018 17.60572435 156.9586362 38.52314404 164.55859375 62.9921875 C166.41305705 69.25503648 167.86448225 75.56539941 169 82 C169.33 82 169.66 82 170 82 C170.12004395 81.41734375 170.24008789 80.8346875 170.36376953 80.234375 C175.9708137 53.39651919 184.75004406 24.89750896 208 8 C220.84602369 0 220.84602369 0 226 0 C226 60.72 226 121.44 226 184 C151.42 184 76.84 184 0 184 C0 123.28 0 62.56 0 0 Z " fill="#F9FAFB" transform="translate(1,51)"/>
<path d="M0 0 C14.85 0 29.7 0 45 0 C45 8.91 45 17.82 45 27 C59.52 27 74.04 27 89 27 C89 18.09 89 9.18 89 0 C104.84 0 120.68 0 137 0 C137 8.91 137 17.82 137 27 C151.85 27 166.7 27 182 27 C182 18.09 182 9.18 182 0 C196.52 0 211.04 0 226 0 C226 14.19 226 28.38 226 43 C219.73 46.3 213.46 49.6 207 53 C203.68706341 55.31506412 200.9105023 57.32531665 198 60 C197.01580078 60.84884766 197.01580078 60.84884766 196.01171875 61.71484375 C182.67606154 73.9629328 175.37766256 92.08494229 170 109 C167.79446112 106.79446112 167.14768571 104.85468762 166.1496582 101.94824219 C158.17946173 78.74532534 144.18876424 60.3693066 121.8203125 49.39916992 C117.55869633 47.46055831 113.98156415 45.91051486 109.265625 47.0625 C99.80227027 50.97837092 91.63167708 56.19785304 84 63 C82.84371094 64.01513672 82.84371094 64.01513672 81.6640625 65.05078125 C69.16065524 76.72205048 62.42376034 93.07966819 57 109 C55.33297065 106.49945598 54.38843365 104.62418544 53.37109375 101.859375 C42.15508226 72.13004645 28.63284926 58.15856726 0 43 C0 28.81 0 14.62 0 0 Z " fill="#033571" transform="translate(1,1)"/>
<path d="M0 0 C21.54602243 7.18200748 33.83896688 21.70698936 43.84765625 41.40234375 C48.54856117 51.09782997 51.93779747 61.2693404 53 72 C52.38125 72.12375 51.7625 72.2475 51.125 72.375 C48.80879168 72.87197356 48.80879168 72.87197356 47 75 C46.67128906 73.52853516 46.67128906 73.52853516 46.3359375 72.02734375 C40.94930337 48.76278201 31.30379598 25.99173505 11 12 C9.68 11.34 8.36 10.68 7 10 C6.67 38.38 6.34 66.76 6 96 C7.32 96.33 8.64 96.66 10 97 C10.99 97.66 11.98 98.32 13 99 C12.505 99.495 12.505 99.495 12 100 C10.02 100 8.04 100 6 100 C6 125.41 6 150.82 6 177 C76.62 177 147.24 177 220 177 C220 151.59 220 126.18 220 100 C168.19 100 116.38 100 63 100 C62.67 99.01 62.34 98.02 62 97 C64.71447137 96.09517621 66.32677717 95.86655584 69.1191864 95.84178162 C69.95631165 95.8319928 70.79343689 95.82220398 71.65592957 95.81211853 C72.57086685 95.80636307 73.48580414 95.8006076 74.4284668 95.79467773 C75.39450836 95.78477814 76.36054993 95.77487854 77.35586548 95.76467896 C80.55362485 95.7330547 83.75139908 95.70830278 86.94921875 95.68359375 C89.16453948 95.66302503 91.37985628 95.64202858 93.59516907 95.62062073 C99.42962461 95.56539163 105.26411563 95.515986 111.09863281 95.46777344 C117.05081341 95.41756457 123.00294242 95.36187529 128.95507812 95.30664062 C140.63667469 95.19904878 152.31831603 95.09760604 164 95 C163.23419174 91.082334 162.46140149 87.1660746 161.6875 83.25 C161.47416016 82.15816406 161.26082031 81.06632812 161.04101562 79.94140625 C159.57901328 72.56593172 157.89321185 65.27664736 156 58 C155.34 58 154.68 58 154 58 C153.86464844 56.75476563 153.86464844 56.75476563 153.7265625 55.484375 C152.86031207 51.33009874 151.30247975 48.0043172 149.375 44.25 C149.02034668 43.54842773 148.66569336 42.84685547 148.30029297 42.12402344 C145.7211115 37.1309485 142.82672603 32.51369137 139.4453125 28.015625 C138.05538178 26.07723514 137.00213404 24.15993939 136 22 C135.34 22 134.68 22 134 22 C134 32.56 134 43.12 134 54 C133.67 54 133.34 54 133 54 C133 52.35 133 50.7 133 49 C131.68 48.67 130.36 48.34 129 48 C129.0220752 47.09233887 129.04415039 46.18467773 129.06689453 45.24951172 C129.12539688 41.85940884 129.13871143 38.47521108 129.12207031 35.08496094 C129.12400937 33.62226233 129.14361017 32.15947103 129.18164062 30.69726562 C129.2969142 25.99666521 129.23625515 21.57585197 128 17 C125.02064814 13.98272682 121.97827786 12.39723557 118 11 C118.66 10.34 119.32 9.68 120 9 C120.69748583 7.68252676 121.36959957 6.35085807 122 5 C145.23408018 17.60572435 156.9586362 38.52314404 164.55859375 62.9921875 C166.41305705 69.25503648 167.86448225 75.56539941 169 82 C169.33 82 169.66 82 170 82 C170.12004395 81.41734375 170.24008789 80.8346875 170.36376953 80.234375 C175.9708137 53.39651919 184.75004406 24.89750896 208 8 C220.84602369 0 220.84602369 0 226 0 C226 60.72 226 121.44 226 184 C151.42 184 76.84 184 0 184 C0 123.28 0 62.56 0 0 Z " fill="#103C75" transform="translate(1,51)"/>
<path d="M0 0 C75.24 0 150.48 0 228 0 C228 77.88 228 155.76 228 236 C152.76 236 77.52 236 0 236 C0 158.12 0 80.24 0 0 Z M1 1 C1 15.19 1 29.38 1 44 C7.27 47.3 13.54 50.6 20 54 C24.01531384 56.96078697 27.46635616 59.59970121 31 63 C31.69996094 63.67160156 32.39992188 64.34320313 33.12109375 65.03515625 C43.98772169 76.36779942 49.84391361 90.5559207 55.18139648 105.06152344 C56.03923942 107.26178338 56.03923942 107.26178338 58 110 C58.61875 108.31197266 58.61875 108.31197266 59.25 106.58984375 C65.26329788 90.46841119 71.58419741 77.10403207 84 65 C84.65613281 64.33484375 85.31226562 63.6696875 85.98828125 62.984375 C91.81013617 57.44924955 98.91558384 53.68186503 106 50 C106.77988281 49.57332031 107.55976562 49.14664063 108.36328125 48.70703125 C114.55998877 47.0453956 120.37348219 48.71650597 125.87109375 51.72827148 C126.51175781 52.10669189 127.15242188 52.4851123 127.8125 52.875 C128.49828125 53.27211182 129.1840625 53.66922363 129.890625 54.07836914 C151.09004734 66.82713721 162.13395062 87.32551675 170 110 C171.80624372 107.29063442 172.83252574 104.85779291 173.90185547 101.80908203 C178.55080293 88.57166713 184.53809257 76.50700963 194 66 C194.60199219 65.30519531 195.20398438 64.61039063 195.82421875 63.89453125 C204.38317809 54.61783947 215.86867182 49.56566409 227 44 C227 29.81 227 15.62 227 1 C212.48 1 197.96 1 183 1 C183 9.91 183 18.82 183 28 C168.15 28 153.3 28 138 28 C138 19.09 138 10.18 138 1 C122.16 1 106.32 1 90 1 C90 9.91 90 18.82 90 28 C75.48 28 60.96 28 46 28 C46 19.09 46 10.18 46 1 C31.15 1 16.3 1 1 1 Z M1 51 C1 111.72 1 172.44 1 235 C75.58 235 150.16 235 227 235 C227 174.28 227 113.56 227 51 C212.28324721 53.94335056 200.72879269 64.44718478 192.1875 76.3125 C180.97757793 93.5414433 174.26493078 112.75742914 171 133 C170.67 133 170.34 133 170 133 C169.87995605 132.44763672 169.75991211 131.89527344 169.63623047 131.32617188 C164.79193044 109.32402649 158.38531149 88.10521419 143 71 C142.44828125 70.36707031 141.8965625 69.73414062 141.328125 69.08203125 C134.98896406 62.24479338 125.20191457 55.15769031 116 53 C101.94499704 53.94241638 90.83614314 64.30933896 81.90625 74.35546875 C80.16522149 76.51266416 78.56447494 78.71220937 77 81 C76.51402344 81.67417969 76.02804688 82.34835938 75.52734375 83.04296875 C66.69901525 96.34431703 62.44231031 112.78494265 58.91015625 128.16796875 C58 132 58 132 57 134 C56.84144531 133.11441406 56.68289062 132.22882813 56.51953125 131.31640625 C51.55404465 104.95269008 42.43353724 76.70089035 20 60 C13.69983251 55.80526621 8.34277979 53.09793708 1 51 Z " fill="#EDF2F5" transform="translate(0,0)"/>
<path d="M0 0 C16.5825 -0.12375 16.5825 -0.12375 33.5 -0.25 C38.68493164 -0.30462402 38.68493164 -0.30462402 43.97460938 -0.36035156 C48.28222656 -0.37841797 48.28222656 -0.37841797 50.31555176 -0.3817749 C51.69906808 -0.38781191 53.08256699 -0.40165307 54.46594238 -0.42230225 C68.21161267 -0.61674632 83.25053678 0.43668444 94 10 C99.66207302 16.0976171 100.39657255 20.6774465 100.25 28.8671875 C99.73765555 35.28750388 96.74437367 38.88820948 92 43 C80.74126489 51.77165111 67.8402567 52.57715999 54.1875 52.25 C52.70510267 52.22987329 51.22267849 52.21163358 49.74023438 52.1953125 C46.15892091 52.15532017 42.58145738 52.07697461 39 52 C39 57.94 39 63.88 39 70 C26.13 70 13.26 70 0 70 C0 46.9 0 23.8 0 0 Z " fill="#033570" transform="translate(10,155)"/>
<path d="M0 0 C11.88 0 23.76 0 36 0 C36 11.55 36 23.1 36 35 C36.66 35 37.32 35 38 35 C38.22945312 34.29488281 38.45890625 33.58976562 38.6953125 32.86328125 C40.24830051 29.45507703 42.40630873 26.94891122 44.875 24.1875 C50.48552055 17.7532952 55.59208306 11.00296404 60.6640625 4.140625 C63 1 63 1 64 0 C66.8116338 -0.08861992 69.59858255 -0.11522355 72.41015625 -0.09765625 C73.25219101 -0.0962413 74.09422577 -0.09482635 74.96177673 -0.09336853 C77.66205335 -0.08775263 80.36224828 -0.07519748 83.0625 -0.0625 C84.88867068 -0.05748705 86.71484266 -0.05292379 88.54101562 -0.04882812 C93.02737542 -0.03777804 97.51367384 -0.02050279 102 0 C100.68876724 2.78824033 99.22733442 5.17859791 97.34765625 7.6171875 C96.82324951 8.30014893 96.29884277 8.98311035 95.75854492 9.68676758 C94.91900269 10.76994263 94.91900269 10.76994263 94.0625 11.875 C93.20265503 12.99588013 93.20265503 12.99588013 92.32543945 14.1394043 C89.49066671 17.82464794 86.62625776 21.48055358 83.6953125 25.08984375 C83.18734131 25.71971191 82.67937012 26.34958008 82.15600586 26.99853516 C81.19664118 28.18358579 80.22900858 29.36200341 79.25219727 30.53271484 C76.66505028 33.73307917 76 34.71723204 76 39 C77.75218939 41.16133006 79.49056058 43.09248358 81.4375 45.0625 C82.5442424 46.21758966 83.64837919 47.37518106 84.75 48.53515625 C85.57564453 49.40358154 85.57564453 49.40358154 86.41796875 50.28955078 C89.44895207 53.56656762 92.19597843 57.0627396 94.96484375 60.5625 C97.03226561 63.12265841 97.03226561 63.12265841 99.75390625 65.6875 C102 68 102 68 102 70 C96.93256419 70.29950746 91.87039574 70.51560938 86.79614258 70.65917969 C85.0758281 70.71907271 83.35611275 70.80063318 81.63793945 70.90527344 C66.62000727 71.79613071 66.62000727 71.79613071 61.51318359 67.47973633 C58.64509152 64.58017467 56.3225166 61.34935147 54 58 C52.44740011 56.03553031 50.84874151 54.11508435 49.25 52.1875 C48.53457031 51.29546875 47.81914062 50.4034375 47.08203125 49.484375 C44.63458251 46.56396712 42.00646803 43.92890119 39.21484375 41.33984375 C38 40 38 40 38 38 C37.34 38 36.68 38 36 38 C36 48.56 36 59.12 36 70 C24.12 70 12.24 70 0 70 C0 46.9 0 23.8 0 0 Z " fill="#023470" transform="translate(115,155)"/>
<path d="M0 0 C10.66501241 3.55500414 10.66501241 3.55500414 13 7 C13.88488405 12.28669494 13.65780313 17.48425217 13.4375 22.8125 C13.40236551 24.28312943 13.37043018 25.753839 13.34179688 27.22460938 C13.26487912 30.81807772 13.14421661 34.40853107 13 38 C14.98 38.495 14.98 38.495 17 39 C17.33 30.09 17.66 21.18 18 12 C18.66 12 19.32 12 20 12 C25.40287375 18.01938424 29.68593163 24.8325008 33.5 31.9375 C33.83789551 32.56342041 34.17579102 33.18934082 34.52392578 33.83422852 C36.28679309 37.2264954 37.28527695 40.26832102 38 44 C38.66 44.33 39.32 44.66 40 45 C39.34 45 38.68 45 38 45 C38 45.99 38 46.98 38 48 C38.66 48 39.32 48 40 48 C44.01359352 60.07250858 48 72.16672459 48 85 C14.34 85 -19.32 85 -54 85 C-53.32207462 78.22074623 -52.50260954 71.85630177 -51.0625 65.25 C-50.89298828 64.43917969 -50.72347656 63.62835938 -50.54882812 62.79296875 C-49.6016271 58.36309323 -48.44675846 54.34027539 -47 50 C-39.74 50 -32.48 50 -25 50 C-24.6875 57.375 -24.6875 57.375 -24.61206055 59.69287109 C-24.51459471 61.47097055 -24.2593191 63.23821373 -24 65 C-22.515 65.99 -22.515 65.99 -21 67 C-18.15385976 64.15385976 -18.54420924 61.19630858 -18.375 57.375 C-18.33632812 56.66859375 -18.29765625 55.9621875 -18.2578125 55.234375 C-18.16352276 53.49001476 -18.08067109 51.74504309 -18 50 C-14.04 50 -10.08 50 -6 50 C-5.93941406 51.04800781 -5.87882812 52.09601563 -5.81640625 53.17578125 C-5.73198262 54.55470048 -5.64733553 55.93360605 -5.5625 57.3125 C-5.52318359 58.00279297 -5.48386719 58.69308594 -5.44335938 59.40429688 C-5.25072585 62.47161535 -4.97677283 65.06968152 -4 68 C-3.34 68 -2.68 68 -2 68 C-0.81304447 64.43913342 -0.64904582 61.02668976 -0.4375 57.3125 C-0.39431641 56.61060547 -0.35113281 55.90871094 -0.30664062 55.18554688 C-0.2008264 53.45724794 -0.09993419 51.7286489 0 50 C3.96 50 7.92 50 12 50 C12 49.34 12 48.68 12 48 C8.37 48 4.74 48 1 48 C1.66 47.01 2.32 46.02 3 45 C2.01 44.67 1.02 44.34 0 44 C0 29.48 0 14.96 0 0 Z " fill="#F9FBFB" transform="translate(117,61)"/>
<path d="M0 0 C0 28.38 0 56.76 0 86 C-14.85 86 -29.7 86 -45 86 C-44.31800581 78.49806393 -43.49517306 71.58052192 -41.8125 64.3125 C-41.59182861 63.35915771 -41.37115723 62.40581543 -41.14379883 61.42358398 C-35.48949177 37.88340523 -24.90292073 15.60480926 -4.5 1.4375 C-2 0 -2 0 0 0 Z " fill="#F8FAFB" transform="translate(221,60)"/>
<path d="M0 0 C20.80804603 10.40402302 30.89985923 29.54480067 38.1875 50.6875 C41.9370158 62.02493945 45 74.02863407 45 86 C30.15 86 15.3 86 0 86 C0 57.62 0 29.24 0 0 Z " fill="#FCFDFD" transform="translate(7,60)"/>
<path d="M0 0 C75.24 0 150.48 0 228 0 C228 0.33 228 0.66 228 1 C213.15 1 198.3 1 183 1 C183 9.91 183 18.82 183 28 C168.15 28 153.3 28 138 28 C138 19.09 138 10.18 138 1 C122.16 1 106.32 1 90 1 C90 9.91 90 18.82 90 28 C75.48 28 60.96 28 46 28 C46 19.09 46 10.18 46 1 C30.82 1 15.64 1 0 1 C0 0.67 0 0.34 0 0 Z " fill="#FBFCFD" transform="translate(0,0)"/>
<path d="M0 0 C0.33 0 0.66 0 1 0 C2.01122096 8.74301416 2.11912186 17.3940747 2.0625 26.1875 C2.041875 30.745625 2.02125 35.30375 2 40 C13.55 40 25.1 40 37 40 C37 40.33 37 40.66 37 41 C-7.88 41 -52.76 41 -99 41 C-99 40.67 -99 40.34 -99 40 C-87.12 40 -75.24 40 -63 40 C-63 33.73 -63 27.46 -63 21 C-59.79603516 20.97873047 -59.79603516 20.97873047 -56.52734375 20.95703125 C-54.40211469 20.92620365 -52.27717831 20.88717058 -50.15209961 20.84741211 C-48.70266467 20.82456246 -47.2530715 20.80991607 -45.8034668 20.80444336 C-32.87516545 20.7461067 -18.086196 19.00635269 -8 10 C-5.48060256 7.12068864 -3.21925352 4.11338755 -1 1 C-0.67 0.67 -0.34 0.34 0 0 Z " fill="#FCFDFD" transform="translate(112,186)"/>
<path d="M0 0 C18.72194349 7.49706144 30.07953394 24.41837623 37.9921875 42.18359375 C42.78749465 53.41070176 45.69942131 65.02950928 48 77 C48.33 77 48.66 77 49 77 C49.36351562 75.08574219 49.36351562 75.08574219 49.734375 73.1328125 C50.07201718 71.4633595 50.41060826 69.79409821 50.75 68.125 C50.90726562 67.28324219 51.06453125 66.44148438 51.2265625 65.57421875 C51.39414063 64.76855469 51.56171875 63.96289062 51.734375 63.1328125 C51.88100586 62.38918457 52.02763672 61.64555664 52.17871094 60.87939453 C53 59 53 59 55.07910156 57.74169922 C55.71299805 57.49693848 56.34689453 57.25217773 57 57 C57.08406351 59.3133032 57.14186842 61.62332708 57.1875 63.9375 C57.23970703 65.86916016 57.23970703 65.86916016 57.29296875 67.83984375 C56.86966321 75.29566534 55.29779908 82.64580523 54 90 C68.85 90 83.7 90 99 90 C98.34 90.66 97.68 91.32 97 92 C96.01 91.67 95.02 91.34 94 91 C94 91.66 94 92.32 94 93 C90.535 93.495 90.535 93.495 87 94 C87 94.33 87 94.66 87 95 C39.15 95 -8.7 95 -58 95 C-58.33 94.01 -58.66 93.02 -59 92 C-56.28552863 91.09517621 -54.67322283 90.86655584 -51.8808136 90.84178162 C-51.04368835 90.8319928 -50.20656311 90.82220398 -49.34407043 90.81211853 C-48.42913315 90.80636307 -47.51419586 90.8006076 -46.5715332 90.79467773 C-45.60549164 90.78477814 -44.63945007 90.77487854 -43.64413452 90.76467896 C-40.44637515 90.7330547 -37.24860092 90.70830278 -34.05078125 90.68359375 C-31.83546052 90.66302503 -29.62014372 90.64202858 -27.40483093 90.62062073 C-21.57037539 90.56539163 -15.73588437 90.515986 -9.90136719 90.46777344 C-3.94918659 90.41756457 2.00294242 90.36187529 7.95507812 90.30664062 C19.63667469 90.19904878 31.31831603 90.09760604 43 90 C42.23419174 86.082334 41.46140149 82.1660746 40.6875 78.25 C40.47416016 77.15816406 40.26082031 76.06632812 40.04101562 74.94140625 C38.57901328 67.56593172 36.89321185 60.27664736 35 53 C34.34 53 33.68 53 33 53 C32.90976563 52.16984375 32.81953125 51.3396875 32.7265625 50.484375 C31.86031207 46.33009874 30.30247975 43.0043172 28.375 39.25 C28.02034668 38.54842773 27.66569336 37.84685547 27.30029297 37.12402344 C24.7211115 32.1309485 21.82672603 27.51369137 18.4453125 23.015625 C17.05538178 21.07723514 16.00213404 19.15993939 15 17 C14.34 17 13.68 17 13 17 C13 27.56 13 38.12 13 49 C12.67 49 12.34 49 12 49 C12 47.35 12 45.7 12 44 C10.02 43.505 10.02 43.505 8 43 C8.0220752 42.09233887 8.04415039 41.18467773 8.06689453 40.24951172 C8.12539688 36.85940884 8.13871143 33.47521108 8.12207031 30.08496094 C8.12400937 28.62226233 8.14361017 27.15947103 8.18164062 25.69726562 C8.2969142 20.99666521 8.23625515 16.57585197 7 12 C4.02064814 8.98272682 0.97827786 7.39723557 -3 6 C-2.34 5.34 -1.68 4.68 -1 4 C-0.3574765 1.93125966 -0.3574765 1.93125966 0 0 Z " fill="#073671" transform="translate(122,56)"/>
<path d="M0 0 C0.33 0.99 0.66 1.98 1 3 C1.66 3 2.32 3 3 3 C3 26.1 3 49.2 3 73 C15.87 73 28.74 73 42 73 C42 73.33 42 73.66 42 74 C63.45 74 84.9 74 107 74 C107 50.24 107 26.48 107 2 C119.54 2 132.08 2 145 2 C145.33 13.88 145.66 25.76 146 38 C145.34 38 144.68 38 144 38 C144 26.45 144 14.9 144 3 C132.12 3 120.24 3 108 3 C108 26.1 108 49.2 108 73 C119.88 73 131.76 73 144 73 C144 62.44 144 51.88 144 41 C146 41 146 41 147.41015625 42.3984375 C147.95542969 43.05070312 148.50070313 43.70296875 149.0625 44.375 C151.82817409 47.62941067 154.63308192 50.83413833 157.5 54 C168.5551755 66.2605098 168.5551755 66.2605098 170.55639648 69.58740234 C173.46045395 72.45461144 175.24573013 72.56846951 179.24688721 72.56648254 C180.05744568 72.54067612 180.86800415 72.51486969 181.703125 72.48828125 C182.95980988 72.47766914 182.95980988 72.47766914 184.24188232 72.46684265 C186.91217147 72.43890066 189.58034708 72.37616613 192.25 72.3125 C194.06246967 72.28741671 195.87497228 72.26460359 197.6875 72.24414062 C202.12581171 72.18907504 206.56254781 72.10280667 211 72 C211 72.66 211 73.32 211 74 C211.66 74.33 212.32 74.66 213 75 C213 50.25 213 25.5 213 0 C213.33 0 213.66 0 214 0 C214 25.08 214 50.16 214 76 C143.38 76 72.76 76 0 76 C0 50.92 0 25.84 0 0 Z " fill="#DAE0E8" transform="translate(7,152)"/>
<path d="M0 0 C10.66501241 3.55500414 10.66501241 3.55500414 13 7 C13.88488405 12.28669494 13.65780313 17.48425217 13.4375 22.8125 C13.40236551 24.28312943 13.37043018 25.753839 13.34179688 27.22460938 C13.26487912 30.81807772 13.14421661 34.40853107 13 38 C14.32 38.33 15.64 38.66 17 39 C17.33 30.09 17.66 21.18 18 12 C18.66 12 19.32 12 20 12 C25.40287375 18.01938424 29.68593163 24.8325008 33.5 31.9375 C33.83789551 32.56342041 34.17579102 33.18934082 34.52392578 33.83422852 C36.28679309 37.2264954 37.28527695 40.26832102 38 44 C38.99 44.495 38.99 44.495 40 45 C39.34 45 38.68 45 38 45 C38 45.99 38 46.98 38 48 C38.66 48 39.32 48 40 48 C40 48.66 40 49.32 40 50 C33.07 50 26.14 50 19 50 C19.15781983 54.80231229 19.15781983 54.80231229 19.36035156 59.6027832 C19.390625 61.42578125 19.390625 61.42578125 19 65 C16.984375 66.98046875 16.984375 66.98046875 15 68 C13.13437358 66.42702086 12.09761557 65.54489783 11.65942383 63.09887695 C11.67513428 62.40238037 11.69084473 61.70588379 11.70703125 60.98828125 C11.71669922 60.23095703 11.72636719 59.47363281 11.73632812 58.69335938 C11.76146484 57.90767578 11.78660156 57.12199219 11.8125 56.3125 C11.83280273 55.11657227 11.83280273 55.11657227 11.85351562 53.89648438 C11.88882911 51.93070033 11.94263553 49.96526418 12 48 C8.37 48 4.74 48 1 48 C1.66 47.01 2.32 46.02 3 45 C2.01 44.67 1.02 44.34 0 44 C0 29.48 0 14.96 0 0 Z " fill="#264E81" transform="translate(117,61)"/>
<path d="M0 0 C8.05081182 0 13.15493633 0.57593812 19.875 4.8125 C23.76991545 8.82197179 25.18579474 12.40837452 25.4375 17.9375 C25.23024781 23.68874817 23.64475418 27.42539845 19.52734375 31.43359375 C13.92715458 35.89521018 7.10326422 38 0 38 C0 25.46 0 12.92 0 0 Z " fill="#F9FBFC" transform="translate(49,160)"/>
<path d="M0 0 C8.52470513 2.84156838 8.52470513 2.84156838 12 6 C12.8185197 8.91230538 12.70075111 11.69795816 12.5859375 14.703125 C12.57744781 15.54091492 12.56895813 16.37870483 12.56021118 17.24188232 C12.52667573 19.91257431 12.45140287 22.58022411 12.375 25.25 C12.34490028 27.06245633 12.31752448 28.87496008 12.29296875 30.6875 C12.22688474 35.1261686 12.12336742 39.56256895 12 44 C8.04 44 4.08 44 0 44 C0 29.48 0 14.96 0 0 Z " fill="#F6F8F9" transform="translate(117,61)"/>
<path d="M0 0 C0 14.19 0 28.38 0 43 C-3.96 43 -7.92 43 -12 43 C-12.22320235 37.84078257 -12.38610225 32.68439491 -12.49438477 27.52148438 C-12.53953126 25.76740561 -12.60086921 24.01366349 -12.67895508 22.26074219 C-13.31097187 7.70370191 -13.31097187 7.70370191 -10.06201172 3.48144531 C-6.63185354 1.11682563 -4.18500626 0 0 0 Z " fill="#F8FAFA" transform="translate(111,61)"/>
<path d="M0 0 C0 9.9 0 19.8 0 30 C-5.94 30 -11.88 30 -18 30 C-17.12993757 24.77962543 -15.89420166 21.21105182 -13.4375 16.6875 C-13.0861499 16.03322021 -12.7347998 15.37894043 -12.37280273 14.70483398 C-4.20103087 0 -4.20103087 0 0 0 Z " fill="#F9FAFB" transform="translate(92,74)"/>
<path d="M0 0 C4.9053033 4.08775275 7.06146971 6.1342656 10.125 11.3125 C10.46337891 11.88282959 10.80175781 12.45315918 11.15039062 13.04077148 C18 24.69599553 18 24.69599553 18 30 C12.06 30 6.12 30 0 30 C0 20.1 0 10.2 0 0 Z " fill="#F9FAFB" transform="translate(136,74)"/>
<path d="M0 0 C0.33 0.99 0.66 1.98 1 3 C1.66 3 2.32 3 3 3 C3 26.1 3 49.2 3 73 C15.87 73 28.74 73 42 73 C42 73.33 42 73.66 42 74 C40.94087402 74.02505615 39.88174805 74.0501123 38.79052734 74.07592773 C34.84314873 74.17043924 30.89592824 74.27055135 26.94873047 74.37231445 C25.2436901 74.41549846 23.53861108 74.45718447 21.83349609 74.49731445 C19.37585833 74.55541972 16.91841216 74.61899586 14.4609375 74.68359375 C13.70444916 74.70030624 12.94796082 74.71701874 12.16854858 74.73423767 C7.96392278 74.85066541 4.18661209 75.30223132 0 76 C0 50.92 0 25.84 0 0 Z " fill="#E4E9EF" transform="translate(7,152)"/>
<path d="M0 0 C0.33 0 0.66 0 1 0 C1.33 14.19 1.66 28.38 2 43 C9.92 46.96 9.92 46.96 18 51 C18.66 51.66 19.32 52.32 20 53 C19.01 54.32 18.02 55.64 17 57 C11.31005458 54.72402183 5.65685425 52.3570226 0 50 C0 33.5 0 17 0 0 Z " fill="#E6EDF1" transform="translate(0,1)"/>
<path d="M0 0 C2.475 0.99 2.475 0.99 5 2 C4.01 2.66 3.02 3.32 2 4 C1.68380955 6.62925352 1.56258838 9.02858854 1.56762695 11.66259766 C1.5574353 12.45292892 1.54724365 13.24326019 1.53674316 14.05754089 C1.50648792 16.67645236 1.49732834 19.29499886 1.48828125 21.9140625 C1.47144381 23.72725655 1.45329485 25.54043886 1.43388367 27.35360718 C1.38627583 32.13098482 1.3565364 36.9083149 1.33044434 41.68585205 C1.29546423 47.41533226 1.23842107 53.14462965 1.18505096 58.8739624 C1.1064107 67.5826189 1.05590084 76.29103402 1 85 C15.52 85 30.04 85 45 85 C45 85.33 45 85.66 45 86 C30.15 86 15.3 86 0 86 C0 57.62 0 29.24 0 0 Z " fill="#C4CFE0" transform="translate(7,60)"/>
<path d="M0 0 C19.47 0 38.94 0 59 0 C58.67 0.66 58.34 1.32 58 2 C29.29 2.495 29.29 2.495 0 3 C0 2.01 0 1.02 0 0 Z " fill="#FAFCFC" transform="translate(8,152)"/>
<path d="M0 0 C12.54 0 25.08 0 38 0 C37.67 1.32 37.34 2.64 37 4 C24.46 3.67 11.92 3.34 -1 3 C-0.67 2.01 -0.34 1.02 0 0 Z " fill="#E5EAF1" transform="translate(180,152)"/>
<path d="M0 0 C0.99 0.66 1.98 1.32 3 2 C3 2.66 3 3.32 3 4 C-9.21 4 -21.42 4 -34 4 C-34.33 3.34 -34.66 2.68 -35 2 C-23.45 2.33 -11.9 2.66 0 3 C0 2.01 0 1.02 0 0 Z " fill="#123B6F" transform="translate(214,221)"/>
<path d="M0 0 C2.64465038 3.1254959 3.84414715 6.08788267 5 10 C3.68 9.34 2.36 8.68 1 8 C1 7.01 1 6.02 1 5 C0.01 5 -0.98 5 -2 5 C-2.33 5.99 -2.66 6.98 -3 8 C-3.99 5.69 -4.98 3.38 -6 1 C-5.38125 1.20625 -4.7625 1.4125 -4.125 1.625 C-3.073125 1.810625 -3.073125 1.810625 -2 2 C-1.34 1.34 -0.68 0.68 0 0 Z " fill="#164077" transform="translate(155,90)"/>
<path d="M0 0 C6.6 0 13.2 0 20 0 C20 0.33 20 0.66 20 1 C17.4167588 1.16821105 14.83342301 1.33462517 12.25 1.5 C11.52039063 1.54769531 10.79078125 1.59539062 10.0390625 1.64453125 C6.68189836 1.85816897 3.36563724 2 0 2 C0 1.34 0 0.68 0 0 Z " fill="#05306A" transform="translate(72,105)"/>
<path d="M0 0 C0.66 0.66 1.32 1.32 2 2 C-0.31 4.64 -2.62 7.28 -5 10 C-5.66 9.67 -6.32 9.34 -7 9 C-4.69 6.03 -2.38 3.06 0 0 Z " fill="#DCE4EC" transform="translate(204,172)"/>
<path d="M0 0 C0.33 0.66 0.66 1.32 1 2 C0.07421875 3.91015625 0.07421875 3.91015625 -1.3125 6.0625 C-1.76238281 6.77535156 -2.21226562 7.48820312 -2.67578125 8.22265625 C-4 10 -4 10 -6 11 C-4.54955729 6.89041233 -2.48889248 3.56741255 0 0 Z " fill="#2B4C80" transform="translate(194,74)"/>
<path d="M0 0 C0.99 0.99 1.98 1.98 3 3 C2.01 3.495 2.01 3.495 1 4 C0.67 2.68 0.34 1.36 0 0 Z M-2 4 C-1.01 4 -0.02 4 1 4 C1 5.98 1 7.96 1 10 C-2 6.25 -2 6.25 -2 4 Z " fill="#1D457A" transform="translate(26,66)"/>
<path d="M0 0 C0 3 0 3 -2 6 C-4.625 6.6875 -4.625 6.6875 -7 7 C-4.78071806 4.09197539 -3.07030857 2.04687238 0 0 Z " fill="#1F4679" transform="translate(207,61)"/>
<path d="M0 0 C0.33 0 0.66 0 1 0 C2 6.625 2 6.625 2 10 C1.01 10.66 0.02 11.32 -1 12 C-0.67 8.04 -0.34 4.08 0 0 Z " fill="#C6D0DC" transform="translate(110,177)"/>
</svg>
